<svg width="12" height="16" viewBox="0 0 12 16" fill="none" xmlns="http://www.w3.org/2000/svg">
<mask id="path-1-inside-1_372_32" fill="white">
<path fill-rule="evenodd" clip-rule="evenodd" d="M2.81016 3.65704C3.70514 1.63731 6.06798 0.725526 8.08771 1.62051C10.1074 2.51549 11.0192 4.87833 10.1242 6.89806L9.51655 8.26945C9.40468 8.52191 9.10932 8.63589 8.85686 8.52402V8.52402C8.60439 8.41214 8.49042 8.11679 8.60229 7.86432L9.20998 6.49293C9.88122 4.97813 9.19738 3.206 7.68258 2.53477C6.16778 1.86353 4.39565 2.54737 3.72442 4.06217L3.11673 5.43356C3.00485 5.68603 2.7095 5.8 2.45703 5.68813V5.68813C2.20457 5.57625 2.09059 5.2809 2.20247 5.02843L2.81016 3.65704Z"/>
</mask>
<path fill-rule="evenodd" clip-rule="evenodd" d="M2.81016 3.65704C3.70514 1.63731 6.06798 0.725526 8.08771 1.62051C10.1074 2.51549 11.0192 4.87833 10.1242 6.89806L9.51655 8.26945C9.40468 8.52191 9.10932 8.63589 8.85686 8.52402V8.52402C8.60439 8.41214 8.49042 8.11679 8.60229 7.86432L9.20998 6.49293C9.88122 4.97813 9.19738 3.206 7.68258 2.53477C6.16778 1.86353 4.39565 2.54737 3.72442 4.06217L3.11673 5.43356C3.00485 5.68603 2.7095 5.8 2.45703 5.68813V5.68813C2.20457 5.57625 2.09059 5.2809 2.20247 5.02843L2.81016 3.65704Z" fill="#F2F2F2"/>
<path d="M10.1242 6.89806L9.20998 6.49293L10.1242 6.89806ZM9.51655 8.26945L10.4308 8.67458L9.51655 8.26945ZM8.49283 0.706248C5.96817 -0.41248 3.01462 0.727254 1.8959 3.25191L3.72442 4.06217C4.39565 2.54737 6.16778 1.86353 7.68258 2.53477L8.49283 0.706248ZM11.0385 7.30318C12.1572 4.77852 11.0175 1.82497 8.49283 0.706248L7.68258 2.53477C9.19738 3.206 9.88122 4.97813 9.20998 6.49293L11.0385 7.30318ZM10.4308 8.67458L11.0385 7.30318L9.20998 6.49293L8.60229 7.86432L10.4308 8.67458ZM8.29572 6.0878L7.68803 7.45919L9.51655 8.26945L10.1242 6.89806L8.29572 6.0878ZM7.27745 3.44903C8.28732 3.89652 8.74321 5.07794 8.29572 6.0878L10.1242 6.89806C11.0192 4.87833 10.1074 2.51549 8.08771 1.62051L7.27745 3.44903ZM4.63868 4.4673C5.08617 3.45743 6.26759 3.00154 7.27745 3.44903L8.08771 1.62051C6.06798 0.725526 3.70514 1.63731 2.81016 3.65704L4.63868 4.4673ZM4.03099 5.83869L4.63868 4.4673L2.81016 3.65704L2.20247 5.02843L4.03099 5.83869ZM1.8959 3.25191L1.28821 4.62331L3.11673 5.43356L3.72442 4.06217L1.8959 3.25191ZM2.86216 4.77387C3.11463 4.88574 3.2286 5.18109 3.11673 5.43356L1.28821 4.62331C0.952587 5.3807 1.29451 6.26677 2.05191 6.60239L2.86216 4.77387ZM9.26198 7.60975C9.51445 7.72163 9.62842 8.01698 9.51655 8.26945L7.68803 7.45919C7.35241 8.21659 7.69433 9.10266 8.45173 9.43828L9.26198 7.60975ZM2.20247 5.02843C2.31434 4.77597 2.60969 4.66199 2.86216 4.77387L2.05191 6.60239C2.8093 6.938 3.69537 6.59608 4.03099 5.83869L2.20247 5.02843ZM8.60229 7.86432C8.71416 7.61186 9.00952 7.49788 9.26198 7.60975L8.45173 9.43828C9.20913 9.77389 10.0952 9.43197 10.4308 8.67458L8.60229 7.86432Z" fill="#747474" mask="url(#path-1-inside-1_372_32)"/>
<rect x="0.5" y="7.5" width="11" height="8" rx="1.5" fill="#F2F2F2" stroke="#747474"/>
</svg>
